# xmcd
#
# Track frame offsets: 
#        150
#        19692
#        33855
#        47825
#        62515
#        92047
#        109025
#        125655
#        140275
#        156285
#
# Disc length: 2331 seconds
#
# Revision: 3
# Processed by: cddbd v1.5.2PL0 Copyright (c) Steve Scherf et al.
# Submitted via: ExactAudioCopy v0.95a5
#
DISCID=7d09190a
DTITLE=Danny Joe Brown - Danny Joe Brown And The Danny Joe Brown Band
DYEAR=1981
DGENRE=Southern Rock
TTITLE0=Sundance
TTITLE1=Nobody Walks On Me
TTITLE2=The Alamo
TTITLE3=Two Days Home
TTITLE4=Edge Of Sundown
TTITLE5=Beggar Man
TTITLE6=Run For Your Life
TTITLE7=Hear My Song
TTITLE8=Gambler's Dream
TTITLE9=Hit The Road
EXTD=
EXTT0=
EXTT1=
EXTT2=
EXTT3=
EXTT4=
EXTT5=
EXTT6=
EXTT7=
EXTT8=
EXTT9=
PLAYORDER=
